<svg width="50" height="50" viewBox="0 0 7 14" fill="none" xmlns="http://www.w3.org/2000/svg">


<!-- whatClientsSays -->
<g id = "slashSvg">
<path d="M0.375 3.47266L3.24609 0.875L26.625 22.75L3.24609 44.625L0.375 42.0273L20.8828 22.75L0.375 3.47266Z" fill="#A9A9A9"/>
</g>

<g id = "slash1Svg">
<path d="M26.625 3.47266L6.11719 22.75L26.625 42.0273L23.7539 44.625L0.375 22.75L23.7539 0.875L26.625 3.47266Z" fill="#737373"/>
</g>


<!-- quote -->
<g id = "quote">
		<path d="M13.5417 20.8333C13.0771 20.8333 12.6312 20.9041 12.1875 20.9687C12.3313 20.4853 12.4792 19.9937 12.7167 19.552C12.9542 18.9103 13.325 18.3541 13.6937 17.7937C14.0021 17.1874 14.5458 16.777 14.9458 16.2583C15.3646 15.7541 15.9354 15.4187 16.3875 14.9999C16.8313 14.5624 17.4125 14.3437 17.875 14.0353C18.3583 13.7583 18.7792 13.452 19.2292 13.3062L20.3521 12.8437L21.3396 12.4333L20.3292 8.39575L19.0854 8.69575C18.6875 8.79575 18.2021 8.91241 17.65 9.052C17.0854 9.15617 16.4833 9.44158 15.8125 9.702C15.15 9.99783 14.3833 10.1978 13.6708 10.6728C12.9542 11.127 12.1271 11.5062 11.3979 12.1145C10.6917 12.7416 9.83958 13.2853 9.21042 14.0833C8.52292 14.8291 7.84375 15.6124 7.31667 16.5041C6.70625 17.3541 6.29166 18.2874 5.85416 19.2103C5.45833 20.1332 5.13959 21.077 4.87917 21.9937C4.38542 23.8312 4.16458 25.577 4.07916 27.0708C4.00833 28.5666 4.05 29.8103 4.1375 30.7103C4.16875 31.1353 4.22708 31.5478 4.26875 31.8333L4.32083 32.1833L4.375 32.1708C4.74554 33.9016 5.59854 35.4923 6.83534 36.7586C8.07213 38.025 9.64217 38.9153 11.3638 39.3266C13.0855 39.738 14.8884 39.6535 16.5641 39.0829C18.2397 38.5124 19.7196 37.4791 20.8325 36.1026C21.9454 34.7261 22.6459 33.0627 22.853 31.3047C23.06 29.5467 22.7651 27.7661 22.0023 26.1687C21.2396 24.5714 20.0403 23.2225 18.543 22.2784C17.0458 21.3342 15.3118 20.8331 13.5417 20.8333ZM36.4583 20.8333C35.9937 20.8333 35.5479 20.9041 35.1042 20.9687C35.2479 20.4853 35.3958 19.9937 35.6333 19.552C35.8708 18.9103 36.2417 18.3541 36.6104 17.7937C36.9187 17.1874 37.4625 16.777 37.8625 16.2583C38.2812 15.7541 38.8521 15.4187 39.3042 14.9999C39.7479 14.5624 40.3292 14.3437 40.7917 14.0353C41.275 13.7583 41.6958 13.452 42.1458 13.3062L43.2687 12.8437L44.2562 12.4333L43.2458 8.39575L42.0021 8.69575C41.6042 8.79575 41.1187 8.91241 40.5667 9.052C40.0021 9.15617 39.4 9.44158 38.7292 9.702C38.0688 9.99992 37.3 10.1978 36.5875 10.6749C35.8708 11.1291 35.0437 11.5083 34.3146 12.1166C33.6083 12.7437 32.7562 13.2874 32.1271 14.0833C31.4396 14.8291 30.7604 15.6124 30.2333 16.5041C29.6229 17.3541 29.2083 18.2874 28.7708 19.2103C28.375 20.1332 28.0562 21.077 27.7958 21.9937C27.3021 23.8312 27.0813 25.577 26.9958 27.0708C26.925 28.5666 26.9667 29.8103 27.0542 30.7103C27.0854 31.1353 27.1437 31.5478 27.1854 31.8333L27.2375 32.1833L27.2917 32.1708C27.6622 33.9016 28.5152 35.4923 29.752 36.7586C30.9888 38.025 32.5588 38.9153 34.2805 39.3266C36.0022 39.738 37.8051 39.6535 39.4807 39.0829C41.1564 38.5124 42.6363 37.4791 43.7492 36.1026C44.8621 34.7261 45.5626 33.0627 45.7696 31.3047C45.9766 29.5467 45.6817 27.7661 44.919 26.1687C44.1563 24.5714 42.9569 23.2225 41.4597 22.2784C39.9624 21.3342 38.2284 20.8331 36.4583 20.8333Z" fill="#7572D5" fill-opacity="1.000000" fill-rule="nonzero"/>
</g>

<g id = "vector2Svg">
<path d="M297.495 192.986C301.775 192.986 305.883 192.257 309.971 191.592C308.646 196.567 307.284 201.627 305.096 206.173C302.908 212.778 299.491 218.503 296.094 224.271C293.254 230.511 288.244 234.735 284.559 240.075C280.702 245.264 275.443 248.716 271.278 253.026C267.19 257.529 261.835 259.781 257.574 262.954C253.121 265.806 249.244 268.958 245.099 270.459L234.754 275.219L225.656 279.444L234.965 321L246.423 317.912C250.089 316.883 254.561 315.682 259.647 314.245C264.848 313.173 270.395 310.236 276.575 307.555C282.678 304.51 289.741 302.452 296.305 297.563C302.908 292.888 310.527 288.986 317.245 282.724C323.751 276.27 331.601 270.674 337.397 262.461C343.731 254.784 349.988 246.722 354.844 237.544C360.467 228.796 364.287 219.189 368.317 209.69C371.964 200.191 374.9 190.477 377.299 181.042C381.848 162.13 383.882 144.161 384.669 128.786C385.322 113.39 384.938 100.589 384.132 91.3253C383.844 86.9509 383.307 82.7052 382.923 79.7675L382.443 76.1652L381.944 76.2938C378.53 58.4784 370.672 42.1068 359.278 29.0727C347.884 16.0387 333.42 6.87478 317.559 2.64126C301.698 -1.59229 285.088 -0.722543 269.651 5.14986C254.214 11.0223 240.581 21.6575 230.328 35.825C220.075 49.9926 213.622 67.1137 211.714 85.2077C209.807 103.302 212.524 121.629 219.551 138.07C226.577 154.511 237.626 168.394 251.42 178.112C265.214 187.83 281.188 192.987 297.495 192.986ZM86.3737 192.986C90.6538 192.986 94.761 192.257 98.8491 191.592C97.5248 196.567 96.1621 201.627 93.9741 206.173C91.7861 212.778 88.3698 218.503 84.9727 224.271C82.1321 230.511 77.1228 234.735 73.4378 240.075C69.58 245.264 64.3211 248.716 60.1563 253.026C56.0682 257.529 50.7134 259.781 46.4526 262.954C41.9998 265.806 38.1229 268.958 33.9772 270.459L23.6322 275.219L14.5348 279.444L23.8434 321L35.3015 317.912C38.9673 316.883 43.4393 315.682 48.5254 314.245C53.7267 313.173 59.2734 310.236 65.4535 307.555C71.5376 304.489 78.6198 302.452 85.1838 297.541C91.7861 292.867 99.4057 288.964 106.123 282.703C112.63 276.249 120.479 270.652 126.276 262.461C132.609 254.784 138.866 246.722 143.722 237.544C149.346 228.796 153.165 219.189 157.195 209.69C160.842 200.191 163.779 190.477 166.178 181.042C170.726 162.13 172.761 144.161 173.548 128.786C174.2 113.39 173.816 100.589 173.01 91.3252C172.722 86.9509 172.185 82.7052 171.801 79.7675L171.321 76.1651L170.822 76.2938C167.409 58.4784 159.55 42.1068 148.156 29.0727C136.762 16.0386 122.298 6.87476 106.437 2.64124C90.5763 -1.59231 73.9666 -0.722561 58.5296 5.14984C43.0926 11.0223 29.4591 21.6574 19.2062 35.825C8.95336 49.9926 2.50002 67.1136 0.592794 85.2077C-1.31443 103.302 1.40239 121.629 8.42894 138.07C15.4555 154.511 26.5047 168.394 40.2984 178.112C54.092 187.83 70.0664 192.987 86.3737 192.986Z" fill="#CFCFCF" fill-opacity="0.2"/>
</g>

<!-- social-media -->
<g id = "xzSvg">
<path d="M1.96875 2.46777C3.28125 1.15527 4.875 0.499023 6.75 0.499023C8.625 0.499023 10.2188 1.15527 11.5312 2.46777C12.8438 3.78027 13.5 5.37402 13.5 7.24902C13.5 9.12402 12.8438 10.7178 11.5312 12.0303C10.2188 13.3428 8.625 13.999 6.75 13.999C4.875 13.999 3.28125 13.3428 1.96875 12.0303C0.65625 10.7178 0 9.12402 0 7.24902C0 5.37402 0.65625 3.78027 1.96875 2.46777ZM11.0391 3.59277C10.4531 4.45996 9.45703 5.20996 8.05078 5.84277C8.19141 6.14746 8.34375 6.51074 8.50781 6.93262C9.82031 6.81543 11.1094 6.79199 12.375 6.8623C12.3047 5.62012 11.8594 4.53027 11.0391 3.59277ZM6.75 1.62402C6.35156 1.62402 5.89453 1.68262 5.37891 1.7998C6.08203 2.50293 6.80859 3.52246 7.55859 4.8584C8.82422 4.34277 9.75 3.69824 10.3359 2.9248C9.28125 2.05762 8.08594 1.62402 6.75 1.62402ZM4.21875 2.25684C2.71875 3.03027 1.74609 4.2373 1.30078 5.87793H2.17969C3.70312 5.87793 5.12109 5.67871 6.43359 5.28027C5.75391 4.06152 5.01562 3.05371 4.21875 2.25684ZM1.125 6.96777V7.24902C1.125 8.67871 1.59375 9.9209 2.53125 10.9756C3.42188 9.31152 4.85156 8.06934 6.82031 7.24902C6.9375 7.20215 7.10156 7.15527 7.3125 7.1084C7.17188 6.7334 7.05469 6.45215 6.96094 6.26465C5.55469 6.70996 3.9375 6.95605 2.10938 7.00293C2.01562 7.00293 1.85156 7.00293 1.61719 7.00293C1.38281 6.97949 1.21875 6.96777 1.125 6.96777ZM6.75 12.874C7.47656 12.874 8.14453 12.7568 8.75391 12.5225C8.63672 11.5381 8.46094 10.6123 8.22656 9.74512C8.13281 9.34668 7.94531 8.77246 7.66406 8.02246C7.38281 8.09277 7.18359 8.16309 7.06641 8.2334C5.30859 9.03027 4.05469 10.1787 3.30469 11.6787C4.33594 12.4756 5.48438 12.874 6.75 12.874ZM9.77344 11.96C11.3203 10.9521 12.1758 9.59277 12.3398 7.88184C10.957 7.78809 9.79688 7.78809 8.85938 7.88184C9.11719 8.6084 9.25781 9.05371 9.28125 9.21777C9.49219 10.0381 9.65625 10.9521 9.77344 11.96Z" fill="#8C8C8C"/>
</g>

<g id = "ytSvg">
<path d="M17.8945 3.4873C17.9648 4.75293 18 6.00684 18 7.24902C18 8.49121 17.9648 9.74512 17.8945 11.0107C17.8945 11.8076 17.6367 12.4873 17.1211 13.0498C16.6289 13.5889 16.0195 13.8584 15.293 13.8584C13.4883 13.9521 11.3906 13.999 9 13.999C6.60938 13.999 4.51172 13.9521 2.70703 13.8584C1.98047 13.8584 1.35938 13.5889 0.84375 13.0498C0.351562 12.4873 0.105469 11.8076 0.105469 11.0107C0.0351562 9.74512 0 8.49121 0 7.24902C0 6.42871 0.046875 5.1748 0.140625 3.4873C0.140625 2.69043 0.386719 2.02246 0.878906 1.4834C1.37109 0.920898 1.98047 0.639648 2.70703 0.639648C4.41797 0.545898 6.41016 0.499023 8.68359 0.499023H9H9.31641C11.5898 0.499023 13.582 0.545898 15.293 0.639648C16.0195 0.639648 16.6289 0.920898 17.1211 1.4834C17.6367 2.02246 17.8945 2.69043 17.8945 3.4873ZM7.27734 10.6943L12.375 7.24902L7.27734 3.76855V10.6943Z" fill="#8C8C8C"/>
</g>

<g id = "fbSvg">
<path d="M4.5 4.99902H6.75L6.46875 7.24902H4.5V13.999H1.58203V7.24902H0V4.99902H1.58203V3.4873C1.58203 2.50293 1.82812 1.76465 2.32031 1.27246C2.8125 0.756836 3.63281 0.499023 4.78125 0.499023H6.75V2.74902H5.55469C5.10938 2.74902 4.81641 2.81934 4.67578 2.95996C4.55859 3.10059 4.5 3.33496 4.5 3.66309V4.99902Z" fill="#8C8C8C"/>
</g>

<g id = "igSvg">
<path d="M12.4102 0.499023C12.7148 0.499023 12.9727 0.604492 13.1836 0.81543C13.3945 1.00293 13.5 1.24902 13.5 1.55371V12.8389C13.5 13.1436 13.3945 13.4131 13.1836 13.6475C12.9727 13.8818 12.7148 13.999 12.4102 13.999H1.16016C0.855469 13.999 0.585938 13.8818 0.351562 13.6475C0.117188 13.4131 0 13.1436 0 12.8389V1.55371C0 1.24902 0.105469 1.00293 0.316406 0.81543C0.550781 0.604492 0.832031 0.499023 1.16016 0.499023H12.4102ZM4.18359 11.749V5.7373H2.25V11.749H4.18359ZM2.53125 4.54199C2.71875 4.72949 2.96484 4.82324 3.26953 4.82324C3.57422 4.82324 3.82031 4.72949 4.00781 4.54199C4.21875 4.33105 4.32422 4.08496 4.32422 3.80371C4.32422 3.49902 4.23047 3.25293 4.04297 3.06543C3.85547 2.85449 3.60938 2.74902 3.30469 2.74902C3 2.74902 2.74219 2.85449 2.53125 3.06543C2.34375 3.25293 2.25 3.49902 2.25 3.80371C2.25 4.08496 2.34375 4.33105 2.53125 4.54199ZM11.25 11.749V8.2334C11.25 7.36621 11.0391 6.70996 10.6172 6.26465C10.2188 5.81934 9.69141 5.59668 9.03516 5.59668C8.33203 5.59668 7.74609 5.9248 7.27734 6.58105V5.7373H5.34375V11.749H7.27734V8.33887C7.27734 8.10449 7.30078 7.94043 7.34766 7.84668C7.53516 7.37793 7.86328 7.14355 8.33203 7.14355C8.98828 7.14355 9.31641 7.57715 9.31641 8.44434V11.749H11.25Z" fill="#8C8C8C"/>
</g>

<g id = "twitterSvg">
<path d="M16.5938 2.11621C16.1719 2.77246 15.6094 3.3584 14.9062 3.87402V4.2959C14.9062 6.75684 14.0156 8.99512 12.2344 11.0107C10.4766 13.0029 8.13281 13.999 5.20312 13.999C3.32812 13.999 1.59375 13.4834 0 12.4521C0.375 12.499 0.644531 12.5225 0.808594 12.5225C2.37891 12.5225 3.78516 12.0303 5.02734 11.0459C4.30078 11.0225 3.64453 10.7998 3.05859 10.3779C2.47266 9.93262 2.07422 9.37012 1.86328 8.69043C2.14453 8.7373 2.35547 8.76074 2.49609 8.76074C2.73047 8.76074 3.03516 8.71387 3.41016 8.62012C2.63672 8.45605 1.98047 8.06934 1.44141 7.45996C0.925781 6.82715 0.667969 6.10059 0.667969 5.28027V5.24512C1.18359 5.52637 1.69922 5.66699 2.21484 5.66699C1.20703 5.01074 0.703125 4.06152 0.703125 2.81934C0.703125 2.2334 0.855469 1.6709 1.16016 1.13184C2.96484 3.3584 5.29688 4.54199 8.15625 4.68262C8.10938 4.51855 8.08594 4.26074 8.08594 3.90918C8.08594 2.94824 8.41406 2.13965 9.07031 1.4834C9.72656 0.827148 10.5352 0.499023 11.4961 0.499023C12.457 0.499023 13.2773 0.862305 13.957 1.58887C14.6602 1.47168 15.3867 1.19043 16.1367 0.745117C15.9023 1.56543 15.3984 2.19824 14.625 2.64355C15.3516 2.57324 16.0078 2.39746 16.5938 2.11621Z" fill="#8C8C8C"/>
</g>

<!-- skills -->

<g id = 'code'>
		<path d="M18.3125 42.0645L27.2623 6.6875L31.4375 7.87244L22.4878 43.3125L18.3125 42.0645Z" fill="#7572D5"/>
		<path d="M18.3125 42.0645L27.2623 6.6875L31.4375 7.87244L22.4878 43.3125L18.3125 42.0645Z" fill="#7572D5" fill-opacity="1.000000" fill-rule="evenodd"/>
		<path d="M13.5025 12.6875L16.5625 15.9277L7.99501 25.0001L16.5625 34.0721L13.5025 37.3125L1.875 25.0001L13.5025 12.6875Z" fill="#7572D5" fill-opacity="1.000000" fill-rule="evenodd"/>
		<path d="M36.4976 12.6875L33.4375 15.9277L42.0051 25.0001L33.4375 34.0721L36.4976 37.3125L48.125 25.0001L36.4976 12.6875Z" fill="#7572D5" fill-opacity="1.000000" fill-rule="evenodd"/>
</g>

<g id = 'figma'>
		<path d="M17.7083 4.16663C14.2565 4.16663 11.4583 6.96484 11.4583 10.4166C11.4583 13.8684 14.2565 16.6666 17.7083 16.6666L32.2916 16.6666C35.7435 16.6666 38.5416 13.8684 38.5416 10.4166C38.5416 6.96484 35.7435 4.16663 32.2916 4.16663L17.7083 4.16663Z" fill="#7572D5" fill-opacity="1.000000" fill-rule="nonzero"/>
		<path d="M32.2917 18.75C28.8398 18.75 26.0417 21.5481 26.0417 25C26.0417 28.4519 28.8398 31.25 32.2917 31.25C35.7437 31.25 38.5417 28.4519 38.5417 25C38.5417 21.5481 35.7437 18.75 32.2917 18.75Z" fill="#7572D5" fill-opacity="1.000000" fill-rule="nonzero"/>
		<path d="M11.4583 25C11.4583 21.5481 14.2565 18.75 17.7083 18.75L23.9583 18.75L23.9583 31.25L17.7083 31.25C14.2565 31.25 11.4583 28.4519 11.4583 25Z" fill="#7572D5" fill-opacity="1.000000" fill-rule="nonzero"/>
		<path d="M17.7083 33.3333C14.2565 33.3333 11.4583 36.1313 11.4583 39.5833C11.4583 43.0352 14.2565 45.8333 17.7083 45.8333C21.1602 45.8333 23.9583 43.0352 23.9583 39.5833L23.9583 33.3333L17.7083 33.3333Z" fill="#7572D5" fill-opacity="1.000000" fill-rule="nonzero"/>
</g>

<g id = 'react'>
	<path id="Vector" d="M45.625 20.4131C45.625 17.4963 42.5 14.7881 37.2917 12.9131L36.3542 12.6006L36.3542 12.1838C37.5 6.45471 36.6667 2.18384 34.0625 0.621338C31.4583 -0.941162 27.6042 0.517212 23.4375 4.16309L22.8125 4.78809L22.6042 4.57971L22.3958 4.57971C18.125 0.621338 13.9583 -0.732788 11.3542 0.725586C8.75 2.18384 8.02081 6.24634 9.0625 11.5588C9.17206 11.8969 9.242 12.2465 9.27081 12.6006L8.125 13.0172C3.02081 14.7881 0 17.4963 0 20.4131C0 23.3297 3.33331 26.2463 8.54169 28.1213L9.27081 28.3297C9.14215 28.6985 9.07184 29.0851 9.0625 29.4756C8.02081 34.6838 8.95831 38.6422 11.3542 40.1006C13.75 41.5588 18.125 40.2047 22.2917 36.5588L22.9167 36.0381L23.75 36.8713C26.6667 39.3713 29.5833 40.7256 31.875 40.7256C32.6833 40.744 33.4796 40.5269 34.1667 40.1006C36.7708 38.6422 37.7083 34.3713 36.5625 28.9547L36.5625 28.7463C36.5175 28.575 36.4827 28.4011 36.4583 28.2256L36.7708 28.2256C42.2917 26.2463 45.625 23.4338 45.625 20.4131ZM42.6042 20.4131C42.6042 21.6631 40.3125 23.8506 35.8333 25.3088L35.625 25.3088C35.0789 23.6333 34.4176 21.9974 33.6458 20.4131C34.375 18.7463 35 17.0797 35.5208 15.5172L36.3542 15.7256C40.5208 17.1838 42.6042 19.1631 42.6042 20.4131ZM25.7292 34.5797L24.8958 33.9547C26.0886 32.6332 27.2017 31.2418 28.2292 29.7881L33.5417 28.9547C33.6458 29.1631 33.6458 29.3713 33.75 29.4756C34.1212 31.3623 34.1915 33.296 33.9583 35.2047C33.812 36.1176 33.3734 36.9583 32.7083 37.6006C31.6667 38.2256 28.8542 37.3922 25.7292 34.5797ZM24.375 29.9963L22.9167 31.8713L21.25 29.9963L24.375 29.9963ZM10.1042 15.4131C10.6277 17.1305 11.2896 18.8026 12.0833 20.4131C11.2889 22.0591 10.6271 23.7659 10.1042 25.5172L9.47919 25.3088C7.65509 24.7332 5.95789 23.8138 4.47919 22.6006C4.09625 22.3586 3.76855 22.0388 3.51727 21.662C3.26605 21.285 3.09692 20.8596 3.02081 20.4131C3.02081 19.1631 5.10419 17.1838 9.0625 15.8297L10.1042 15.4131ZM21.25 10.8297L22.8125 9.05884L24.375 10.8297L21.25 10.8297ZM32.7083 3.22559C33.8542 3.85059 34.4792 6.97559 33.5417 11.5588C33.5464 11.6154 33.5397 11.6721 33.5218 11.7258C33.5038 11.7795 33.4752 11.8291 33.4375 11.8713L28.2292 11.0381C27.2017 9.58435 26.0886 8.19299 24.8958 6.87134L25.5208 6.35059C28.8542 3.43384 31.5625 2.60059 32.7083 3.22559ZM15.3125 14.2672L14.4792 15.6213L13.75 16.9756C13.4375 16.2463 13.2292 15.5172 12.9167 14.6838L15.3125 14.2672ZM12.9167 26.1422C13.2292 25.4131 13.4375 24.6838 13.75 23.8506L14.4792 25.2047L15.3125 26.5588L12.9167 26.1422ZM30.3125 20.4131C29.7824 21.5552 29.1913 22.6678 28.5417 23.7463C27.9167 24.8922 27.1875 25.9338 26.5625 26.9756L19.0625 26.9756C18.3333 25.8297 17.6042 24.7881 17.0833 23.7463C16.4286 22.6708 15.8373 21.5577 15.3125 20.4131C15.8179 19.2589 16.4099 18.1447 17.0833 17.0797C17.6818 16.0005 18.3427 14.957 19.0625 13.9547C21.5582 13.7465 24.0668 13.7465 26.5625 13.9547C27.2917 14.9963 27.9167 16.0381 28.5417 17.0797C29.2151 18.1447 29.8071 19.2589 30.3125 20.4131ZM31.1458 15.6213L30.3125 14.2672L32.7083 14.7881C32.4764 15.5338 32.1981 16.2644 31.875 16.9756L31.1458 15.6213ZM30.3125 26.5588L31.1458 25.2047L31.875 23.7463L32.8125 26.1422L30.3125 26.5588ZM20.625 6.76721L20.7292 6.76721L17.3958 10.9338L12.1875 11.7672C12.0833 11.4547 12.0833 11.2463 11.9792 10.9338C11.1458 6.66309 11.7708 3.74634 12.8125 3.22559C13.0891 3.04395 13.4225 2.96985 13.75 3.01721C15.2083 3.01721 17.7083 4.05884 20.5208 6.55884L20.625 6.76721ZM11.9792 29.9963C11.9982 29.6748 12.0685 29.3583 12.1875 29.0588L17.5 29.7881C18.5015 31.2612 19.616 32.6543 20.8333 33.9547L20.625 34.1631L20.4167 34.3713C18.9965 35.6869 17.3336 36.713 15.5208 37.3922C15.1232 37.6005 14.6875 37.7263 14.24 37.7621C13.7925 37.798 13.3424 37.7429 12.9167 37.6006C11.7708 36.9756 11.1458 34.1631 11.9792 29.9963Z" fill="#7572D5" fill-opacity="1.000000" fill-rule="nonzero"/>
	<path id="Vector" d="M22.8125 15.8298C21.9019 15.8091 21.0057 16.0602 20.2384 16.551C19.4711 17.042 18.8674 17.7504 18.5045 18.5858C18.1416 19.4213 18.0358 20.3459 18.2007 21.2417C18.3657 22.1376 18.7938 22.964 19.4304 23.6154C20.067 24.2668 20.8834 24.7139 21.7751 24.8993C22.667 25.0847 23.5938 25.0002 24.4374 24.6566C25.2809 24.313 26.0031 23.7258 26.5114 22.97C27.0198 22.2141 27.2914 21.324 27.2917 20.4131C27.292 19.2153 26.8234 18.0651 25.9863 17.2085C25.1491 16.3519 24.0099 15.8571 22.8125 15.8298Z" fill="#7572D5" fill-opacity="1.000000" fill-rule="nonzero"/>
</g>

<g id = 'styledcomp'>
		<path d="M37.2591 6.25L36.9888 7.64966C36.5708 10.3021 36.7221 11.061 37.8682 12.0454L38.9747 12.9546L37.8286 18.0305C37.1438 21.0588 36.3041 23.5968 35.7707 24.4308C35.313 25.1504 34.7796 26.21 34.6642 26.7791C34.4732 27.4592 33.8245 28.1429 32.8334 28.7478C31.9576 29.2418 30.2385 30.5663 29.0203 31.6294C28.0472 32.4993 27.3769 33.0326 27.0129 33.2617L25.8235 34.196C25.4415 34.8046 25.2253 35.2949 25.1424 35.6672C25.0595 36.0503 25.1063 36.3044 25.2289 36.4906C25.3478 36.6696 25.5532 36.7948 25.8343 36.8735C26.1671 36.951 26.5097 36.9788 26.8507 36.9559C27.6222 36.9036 28.3858 36.7692 29.1284 36.5549C29.3807 36.4869 29.5789 36.4225 29.7519 36.3652C30.0186 36.0396 30.6349 35.4238 31.7269 34.3535C34.6246 31.5149 35.731 29.9613 34.5885 30.3801C34.1669 30.5305 34.3579 30.151 35.0823 29.3922C36.6104 27.9138 37.4862 25.6802 39.317 18.6748C40.7659 13.1443 40.7659 13.0656 41.8327 13.0656C42.3336 13.0656 43.75 13.1515 43.75 13.1515L43.75 6.25L40.4992 6.25L37.2591 6.25ZM24.4216 18.0806C23.3692 18.0735 21.1058 19.6664 14.3302 25.1611C14.0383 25.8519 14.0131 26.328 14.1464 26.6359C14.2329 26.847 14.3915 26.9939 14.6114 27.1012C14.8276 27.2086 15.1087 27.2731 15.4187 27.2981C16.035 27.3518 16.763 27.2551 17.3504 27.1406L17.7469 27.0511C17.8826 26.8704 18.0608 26.7253 18.2659 26.6287C18.6839 26.3997 20.4391 24.8103 22.1943 23.1063C25.2829 19.9993 26.0073 18.5961 24.7495 18.1415C24.6463 18.1007 24.5326 18.0801 24.4216 18.0806ZM32.336 20.2391C31.4098 20.2642 29.7411 21.3309 26.8831 23.5968C25.4487 24.7531 24.5405 25.3759 24.0539 25.5048L22.1654 26.9867C21.4554 28.2754 21.3509 29.0736 21.5383 29.5139C21.5852 29.6226 21.6533 29.7208 21.7387 29.8031C21.8241 29.8855 21.925 29.9502 22.0357 29.9935C22.311 30.1016 22.6046 30.1562 22.9007 30.1547C23.608 30.1471 24.3112 30.0448 24.991 29.8503C25.3453 29.756 25.6952 29.6461 26.0398 29.521L26.1443 29.4781L26.3353 29.3778C26.6957 28.9161 27.5246 28.0463 28.5626 27.0439C31.8423 23.901 33.5181 21.6674 33.1758 20.8334C33.0208 20.4288 32.7541 20.2249 32.336 20.2391ZM23.5998 24.1051C23.3331 24.1338 22.7349 24.5919 21.6573 25.5298C20.1003 26.8972 18.4028 27.6847 17.8154 27.3339C17.6788 27.3645 17.5419 27.3932 17.4045 27.4198C16.8062 27.538 16.0602 27.6346 15.3934 27.5809C15.0793 27.562 14.7714 27.4856 14.4852 27.3553C14.2153 27.2328 13.9999 27.0164 13.8797 26.7468C13.7464 26.4247 13.7464 26.0238 13.8978 25.5118L11.5551 27.4233L6.2536 31.7798L6.2536 38.8424L23.6251 25.2506C23.6217 25.1018 23.6411 24.9532 23.6827 24.8103C23.8161 24.3306 23.8089 24.0872 23.5998 24.1086L23.5998 24.1051ZM31.0746 26.3925C30.8115 26.3925 30.3718 26.7612 29.669 27.5022C28.714 28.5151 27.2111 29.496 26.4146 29.6964L26.2921 29.7609C26.1613 29.8145 26.0291 29.8646 25.8956 29.9113C25.6794 29.9828 25.3983 30.0687 25.0739 30.1547C24.4252 30.3301 23.6179 30.4911 22.897 30.4733C22.5572 30.4728 22.2207 30.4071 21.9059 30.2799C21.6093 30.1584 21.3716 29.9275 21.2428 29.6356C21.0338 29.1381 21.1167 28.4401 21.5744 27.4485L6.25 39.4365L6.25 43.75L12.9823 43.75L27.2615 32.6102C27.6328 32.2021 28.1914 31.6438 28.9446 30.9457C30.9629 29.0879 31.4206 28.4471 31.4206 27.4985C31.4206 26.7611 31.3377 26.3889 31.0746 26.3889L31.0746 26.3925ZM34.4732 33.3727L33.2514 34.5826C32.5667 35.2269 31.3449 36.0216 30.5088 36.3617L30.343 36.4332L30.3322 36.4512L30.2961 36.4869C30.2637 36.5121 30.2493 36.5156 30.2241 36.5264C29.8903 36.6519 29.5512 36.7629 29.2077 36.8593C28.4441 37.0801 27.6586 37.218 26.8651 37.2709C26.4899 37.2948 26.1132 37.2622 25.7478 37.1742C25.4308 37.105 25.1508 36.9213 24.9622 36.6588C24.7892 36.3939 24.7387 36.0396 24.836 35.6028C24.9134 35.2919 25.0284 34.9915 25.1784 34.7079L13.6563 43.75L28.9807 43.75L30.8115 41.6666C33.3271 38.7528 34.4732 36.6696 34.4732 34.8868L34.4732 33.3727Z" fill="#7572D5" fill-opacity="1.000000" fill-rule="nonzero"/>
</g>

<g id = 'html'>
	<path id="Vector" d="M32.5524 8.27502L7.4476 8.26892L7.85306 13.1859L27.1397 13.189L26.6535 18.2815L14.005 18.2815L14.4623 23.1055L26.2373 23.1055L25.5407 29.7119L19.9985 31.2198L14.3678 29.7014L14.0096 25.7448L9.03741 25.7448L9.5892 32.9724L19.9985 36.1654L30.2325 33.2965L32.5509 8.27649L32.5524 8.27502ZM0 0L40 0L36.3616 40.4312L19.9558 45L3.64149 40.4281L0 0Z" fill="#7572D5" fill-opacity="1.000000" fill-rule="nonzero"/>

</g>

<g id = 'typescript'>
		<path d="M5 25L5 45L45 45L45 5L5 5L5 25ZM37.235 23.4066C38.2517 23.66 39.025 24.1117 39.7367 24.8484C40.105 25.2417 40.6517 25.9584 40.695 26.1317C40.7083 26.1816 38.9683 27.3484 37.915 28.0033C37.8767 28.0283 37.7233 27.8633 37.5533 27.61C37.0367 26.86 36.4983 26.5366 35.6733 26.48C34.46 26.3966 33.68 27.0316 33.6867 28.0917C33.6756 28.3523 33.7343 28.6112 33.8567 28.8417C34.1233 29.3933 34.62 29.725 36.1733 30.3966C39.0383 31.63 40.2633 32.4417 41.025 33.5967C41.875 34.885 42.0667 36.9434 41.4883 38.4734C40.855 40.1367 39.28 41.2667 37.0633 41.64C36.3783 41.7617 34.7533 41.7433 34.0167 41.61C32.41 41.3234 30.8867 40.53 29.9467 39.4883C29.5783 39.0834 28.86 38.0217 28.905 37.9467C28.9233 37.92 29.0883 37.8184 29.2717 37.7117C29.4517 37.61 30.1233 37.2217 30.7583 36.8533L31.9083 36.1866L32.15 36.5433C32.4867 37.0566 33.2217 37.7617 33.6667 37.9967C34.9433 38.67 36.695 38.575 37.5583 37.8C37.7319 37.6538 37.8694 37.4694 37.9599 37.2611C38.0504 37.053 38.0915 36.8267 38.08 36.6C38.08 36.1367 38.0217 35.9333 37.78 35.5834C37.47 35.14 36.835 34.7667 35.0317 33.9833C32.9683 33.095 32.08 32.5433 31.2667 31.6666C30.759 31.0881 30.3842 30.4055 30.1683 29.6666C30.0167 29.1017 29.9783 27.6851 30.0983 27.115C30.5233 25.12 32.0283 23.7317 34.2 23.3184C34.905 23.1851 36.5433 23.235 37.235 23.4066ZM27.845 25.0767L27.8583 26.715L22.65 26.715L22.65 41.5083L18.9667 41.5083L18.9667 26.715L13.7633 26.715L13.7633 25.1083C13.7633 24.2184 13.7817 23.475 13.8067 23.4584C13.8267 23.4316 16.995 23.4183 20.835 23.425L27.8267 23.4449L27.845 25.0767Z" fill="#7572D5" fill-opacity="1.000000" fill-rule="nonzero"/>
</g>

<g id='logo'>
<path d="M13.338 36.54C16.326 36.54 18.798 35.784 20.754 34.272C22.722 32.76 24.09 30.726 24.858 28.17L21.042 27.144C20.526 28.956 19.626 30.378 18.342 31.41C17.058 32.442 15.39 32.958 13.338 32.958C11.502 32.958 9.966 32.544 8.73 31.716C7.506 30.888 6.582 29.73 5.958 28.242C5.346 26.754 5.046 25.02 5.058 23.04C5.07 21.06 5.382 19.326 5.994 17.838C6.606 16.35 7.524 15.192 8.748 14.364C9.972 13.536 11.502 13.122 13.338 13.122C15.39 13.122 17.058 13.638 18.342 14.67C19.626 15.702 20.526 17.124 21.042 18.936L24.858 17.91C24.09 15.354 22.722 13.32 20.754 11.808C18.798 10.296 16.326 9.54 13.338 9.54C10.746 9.54 8.538 10.11 6.714 11.25C4.89 12.39 3.492 13.974 2.52 16.002C1.56 18.018 1.08 20.364 1.08 23.04C1.08 25.716 1.56 28.068 2.52 30.096C3.492 32.112 4.89 33.69 6.714 34.83C8.538 35.97 10.746 36.54 13.338 36.54ZM27.3589 36H31.1749V25.884C31.1749 24.348 31.3969 23.124 31.8409 22.212C32.2969 21.288 32.8969 20.622 33.6409 20.214C34.3849 19.806 35.2069 19.602 36.1069 19.602C37.1389 19.602 37.9789 19.812 38.6269 20.232C39.2749 20.652 39.7729 21.204 40.1209 21.888C40.4689 22.572 40.7029 23.316 40.8229 24.12C40.9549 24.912 41.0209 25.686 41.0209 26.442V36H44.8369V25.2C44.8369 24.6 44.7829 23.904 44.6749 23.112C44.5669 22.32 44.3629 21.51 44.0629 20.682C43.7629 19.854 43.3249 19.092 42.7489 18.396C42.1849 17.688 41.4469 17.118 40.5349 16.686C39.6229 16.254 38.4949 16.038 37.1509 16.038C35.7469 16.038 34.4989 16.29 33.4069 16.794C32.3269 17.298 31.4329 17.994 30.7249 18.882V10.08H27.3589V36ZM48.0853 36H51.8833V26.19C51.8833 25.05 52.0633 23.994 52.4233 23.022C52.7833 22.05 53.4193 21.27 54.3313 20.682C54.9793 20.262 55.6933 20.016 56.4733 19.944C57.2533 19.872 57.9553 19.92 58.5793 20.088V16.56C57.7033 16.392 56.7733 16.398 55.7893 16.578C54.8173 16.758 53.9653 17.118 53.2333 17.658C52.5133 18.138 51.9133 18.804 51.4333 19.656V16.56H48.0853V36ZM60.9272 13.374H64.6892V9.72H60.9272V13.374ZM60.9272 36H64.6892V16.56H60.9272V36ZM76.0885 36.522C78.5485 36.522 80.4745 35.976 81.8665 34.884C83.2705 33.792 83.9725 32.286 83.9725 30.366C83.9725 29.358 83.7625 28.506 83.3425 27.81C82.9345 27.114 82.2505 26.514 81.2905 26.01C80.3305 25.494 79.0345 25.026 77.4025 24.606C75.8785 24.222 74.7265 23.892 73.9465 23.616C73.1785 23.328 72.6565 23.04 72.3805 22.752C72.1045 22.452 71.9665 22.086 71.9665 21.654C71.9665 20.91 72.3205 20.328 73.0285 19.908C73.7365 19.476 74.6605 19.284 75.8005 19.332C76.9885 19.38 77.9545 19.68 78.6985 20.232C79.4425 20.772 79.8805 21.504 80.0125 22.428L83.8645 21.726C83.6485 19.998 82.8025 18.618 81.3265 17.586C79.8505 16.542 77.9965 16.02 75.7645 16.02C73.4845 16.02 71.6545 16.554 70.2745 17.622C68.8945 18.678 68.2045 20.088 68.2045 21.852C68.2045 22.8 68.4085 23.61 68.8165 24.282C69.2365 24.942 69.9325 25.518 70.9045 26.01C71.8885 26.502 73.2145 26.97 74.8825 27.414C76.4065 27.822 77.5405 28.164 78.2845 28.44C79.0285 28.716 79.5145 29.01 79.7425 29.322C79.9825 29.622 80.1025 30.018 80.1025 30.51C80.1025 31.35 79.7665 32.01 79.0945 32.49C78.4345 32.97 77.5165 33.21 76.3405 33.21C75.0445 33.21 73.9585 32.922 73.0825 32.346C72.2185 31.77 71.6665 30.972 71.4265 29.952L67.5745 30.546C67.9105 32.442 68.8225 33.912 70.3105 34.956C71.7985 36 73.7245 36.522 76.0885 36.522Z" fill="black"/>
<circle cx="91" cy="33" r="3" fill="#red"/>
</g>
</svg>

