<svg width="50.000000" height="50.000000" viewBox="0 0 50 50" fill="none" xmlns="http://www.w3.org/2000/svg" xmlns:xlink="http://www.w3.org/1999/xlink">
	<desc>
			Created with Pixso.
	</desc>
	<defs>
		<clipPath id="clip20_1942">
			<rect width="50.000000" height="50.000000" fill="white" fill-opacity="0"/>
		</clipPath>
	</defs>
	<rect width="50.000000" height="50.000000" fill="#FFFFFF" fill-opacity="0"/>
	<g clip-path="url(#clip20_1942)">
		<path d="M13.5417 20.8333C13.0771 20.8333 12.6312 20.9041 12.1875 20.9687C12.3313 20.4853 12.4792 19.9937 12.7167 19.552C12.9542 18.9103 13.325 18.3541 13.6937 17.7937C14.0021 17.1874 14.5458 16.777 14.9458 16.2583C15.3646 15.7541 15.9354 15.4187 16.3875 14.9999C16.8313 14.5624 17.4125 14.3437 17.875 14.0353C18.3583 13.7583 18.7792 13.452 19.2292 13.3062L20.3521 12.8437L21.3396 12.4333L20.3292 8.39575L19.0854 8.69575C18.6875 8.79575 18.2021 8.91241 17.65 9.052C17.0854 9.15617 16.4833 9.44158 15.8125 9.702C15.15 9.99783 14.3833 10.1978 13.6708 10.6728C12.9542 11.127 12.1271 11.5062 11.3979 12.1145C10.6917 12.7416 9.83958 13.2853 9.21042 14.0833C8.52292 14.8291 7.84375 15.6124 7.31667 16.5041C6.70625 17.3541 6.29166 18.2874 5.85416 19.2103C5.45833 20.1332 5.13959 21.077 4.87917 21.9937C4.38542 23.8312 4.16458 25.577 4.07916 27.0708C4.00833 28.5666 4.05 29.8103 4.1375 30.7103C4.16875 31.1353 4.22708 31.5478 4.26875 31.8333L4.32083 32.1833L4.375 32.1708C4.74554 33.9016 5.59854 35.4923 6.83534 36.7586C8.07213 38.025 9.64217 38.9153 11.3638 39.3266C13.0855 39.738 14.8884 39.6535 16.5641 39.0829C18.2397 38.5124 19.7196 37.4791 20.8325 36.1026C21.9454 34.7261 22.6459 33.0627 22.853 31.3047C23.06 29.5467 22.7651 27.7661 22.0023 26.1687C21.2396 24.5714 20.0403 23.2225 18.543 22.2784C17.0458 21.3342 15.3118 20.8331 13.5417 20.8333ZM36.4583 20.8333C35.9937 20.8333 35.5479 20.9041 35.1042 20.9687C35.2479 20.4853 35.3958 19.9937 35.6333 19.552C35.8708 18.9103 36.2417 18.3541 36.6104 17.7937C36.9187 17.1874 37.4625 16.777 37.8625 16.2583C38.2812 15.7541 38.8521 15.4187 39.3042 14.9999C39.7479 14.5624 40.3292 14.3437 40.7917 14.0353C41.275 13.7583 41.6958 13.452 42.1458 13.3062L43.2687 12.8437L44.2562 12.4333L43.2458 8.39575L42.0021 8.69575C41.6042 8.79575 41.1187 8.91241 40.5667 9.052C40.0021 9.15617 39.4 9.44158 38.7292 9.702C38.0688 9.99992 37.3 10.1978 36.5875 10.6749C35.8708 11.1291 35.0437 11.5083 34.3146 12.1166C33.6083 12.7437 32.7562 13.2874 32.1271 14.0833C31.4396 14.8291 30.7604 15.6124 30.2333 16.5041C29.6229 17.3541 29.2083 18.2874 28.7708 19.2103C28.375 20.1332 28.0562 21.077 27.7958 21.9937C27.3021 23.8312 27.0813 25.577 26.9958 27.0708C26.925 28.5666 26.9667 29.8103 27.0542 30.7103C27.0854 31.1353 27.1437 31.5478 27.1854 31.8333L27.2375 32.1833L27.2917 32.1708C27.6622 33.9016 28.5152 35.4923 29.752 36.7586C30.9888 38.025 32.5588 38.9153 34.2805 39.3266C36.0022 39.738 37.8051 39.6535 39.4807 39.0829C41.1564 38.5124 42.6363 37.4791 43.7492 36.1026C44.8621 34.7261 45.5626 33.0627 45.7696 31.3047C45.9766 29.5467 45.6817 27.7661 44.919 26.1687C44.1563 24.5714 42.9569 23.2225 41.4597 22.2784C39.9624 21.3342 38.2284 20.8331 36.4583 20.8333Z" fill="#7572D5" fill-opacity="1.000000" fill-rule="nonzero"/>
	</g>
</svg>
