<svg width="94" height="45" viewBox="0 0 94 45" fill="none" xmlns="http://www.w3.org/2000/svg">
<path d="M13.338 36.54C16.326 36.54 18.798 35.784 20.754 34.272C22.722 32.76 24.09 30.726 24.858 28.17L21.042 27.144C20.526 28.956 19.626 30.378 18.342 31.41C17.058 32.442 15.39 32.958 13.338 32.958C11.502 32.958 9.966 32.544 8.73 31.716C7.506 30.888 6.582 29.73 5.958 28.242C5.346 26.754 5.046 25.02 5.058 23.04C5.07 21.06 5.382 19.326 5.994 17.838C6.606 16.35 7.524 15.192 8.748 14.364C9.972 13.536 11.502 13.122 13.338 13.122C15.39 13.122 17.058 13.638 18.342 14.67C19.626 15.702 20.526 17.124 21.042 18.936L24.858 17.91C24.09 15.354 22.722 13.32 20.754 11.808C18.798 10.296 16.326 9.54 13.338 9.54C10.746 9.54 8.538 10.11 6.714 11.25C4.89 12.39 3.492 13.974 2.52 16.002C1.56 18.018 1.08 20.364 1.08 23.04C1.08 25.716 1.56 28.068 2.52 30.096C3.492 32.112 4.89 33.69 6.714 34.83C8.538 35.97 10.746 36.54 13.338 36.54ZM27.3589 36H31.1749V25.884C31.1749 24.348 31.3969 23.124 31.8409 22.212C32.2969 21.288 32.8969 20.622 33.6409 20.214C34.3849 19.806 35.2069 19.602 36.1069 19.602C37.1389 19.602 37.9789 19.812 38.6269 20.232C39.2749 20.652 39.7729 21.204 40.1209 21.888C40.4689 22.572 40.7029 23.316 40.8229 24.12C40.9549 24.912 41.0209 25.686 41.0209 26.442V36H44.8369V25.2C44.8369 24.6 44.7829 23.904 44.6749 23.112C44.5669 22.32 44.3629 21.51 44.0629 20.682C43.7629 19.854 43.3249 19.092 42.7489 18.396C42.1849 17.688 41.4469 17.118 40.5349 16.686C39.6229 16.254 38.4949 16.038 37.1509 16.038C35.7469 16.038 34.4989 16.29 33.4069 16.794C32.3269 17.298 31.4329 17.994 30.7249 18.882V10.08H27.3589V36ZM48.0853 36H51.8833V26.19C51.8833 25.05 52.0633 23.994 52.4233 23.022C52.7833 22.05 53.4193 21.27 54.3313 20.682C54.9793 20.262 55.6933 20.016 56.4733 19.944C57.2533 19.872 57.9553 19.92 58.5793 20.088V16.56C57.7033 16.392 56.7733 16.398 55.7893 16.578C54.8173 16.758 53.9653 17.118 53.2333 17.658C52.5133 18.138 51.9133 18.804 51.4333 19.656V16.56H48.0853V36ZM60.9272 13.374H64.6892V9.72H60.9272V13.374ZM60.9272 36H64.6892V16.56H60.9272V36ZM76.0885 36.522C78.5485 36.522 80.4745 35.976 81.8665 34.884C83.2705 33.792 83.9725 32.286 83.9725 30.366C83.9725 29.358 83.7625 28.506 83.3425 27.81C82.9345 27.114 82.2505 26.514 81.2905 26.01C80.3305 25.494 79.0345 25.026 77.4025 24.606C75.8785 24.222 74.7265 23.892 73.9465 23.616C73.1785 23.328 72.6565 23.04 72.3805 22.752C72.1045 22.452 71.9665 22.086 71.9665 21.654C71.9665 20.91 72.3205 20.328 73.0285 19.908C73.7365 19.476 74.6605 19.284 75.8005 19.332C76.9885 19.38 77.9545 19.68 78.6985 20.232C79.4425 20.772 79.8805 21.504 80.0125 22.428L83.8645 21.726C83.6485 19.998 82.8025 18.618 81.3265 17.586C79.8505 16.542 77.9965 16.02 75.7645 16.02C73.4845 16.02 71.6545 16.554 70.2745 17.622C68.8945 18.678 68.2045 20.088 68.2045 21.852C68.2045 22.8 68.4085 23.61 68.8165 24.282C69.2365 24.942 69.9325 25.518 70.9045 26.01C71.8885 26.502 73.2145 26.97 74.8825 27.414C76.4065 27.822 77.5405 28.164 78.2845 28.44C79.0285 28.716 79.5145 29.01 79.7425 29.322C79.9825 29.622 80.1025 30.018 80.1025 30.51C80.1025 31.35 79.7665 32.01 79.0945 32.49C78.4345 32.97 77.5165 33.21 76.3405 33.21C75.0445 33.21 73.9585 32.922 73.0825 32.346C72.2185 31.77 71.6665 30.972 71.4265 29.952L67.5745 30.546C67.9105 32.442 68.8225 33.912 70.3105 34.956C71.7985 36 73.7245 36.522 76.0885 36.522Z" fill="black"/>
<circle cx="91" cy="33" r="3" fill="#red"/>
</svg>
